# xmcd CD database file
#
# Track frame offsets:
#	150
#	21930
#	41715
#	59647
#	78090
#	92817
#	109485
#	134360
#	154488
#	169121
#	184601
#	201116
#
# Disc length: 2976 seconds
#
# Revision: 1
# Processed by: cddbd v1.5.1PL0 Copyright (c) Steve Scherf et al.
# Submitted via: CDex 1.40Release
#
DISCID=a70b9e0c
DTITLE=Compil - Merengue underground
DYEAR=1900
DGENRE=Merengue
TTITLE0=Mambo Franco - De colores
TTITLE1=Cruchy Perez - Cabaretera
TTITLE2=Capulina y el Grupo Encendi'o - Merenreggae
TTITLE3=Tito Kenton - El barrigon
TTITLE4=Favio and Fernando - Tenecesito
TTITLE5=Machaco - El fiscal
TTITLE6=Cruchy perez - Senior merengue
TTITLE7=Frantoni Santana and Mozaribe - El indio de la charca
TTITLE8=Mambo Franco - Ta catiente el sol
TTITLE9=Frantoni Santana and Mozaribe - El yaguasil
TTITLE10=Alejandro Tio - Si tu me dices ven
TTITLE11=Raulin Rosendo - Lloraras
EXTD=
EXTT0=
EXTT1=
EXTT2=
EXTT3=
EXTT4=
EXTT5=
EXTT6=
EXTT7=
EXTT8=
EXTT9=
EXTT10=
EXTT11=
PLAYORDER=
